Coordinates
version=1
nRows=38
nColumns=12
inDegrees=yes

Units are S.I. units (second, meters, Newtons, ...)
Angles are in degrees

endheader
time	SC_y	SC_z	SC_x	AC_y	AC_z	AC_x	GH_y	GH_z	GH_yy	EL_x	PS_y
       0.0              -30.13        -0.8292           71.4          59.37          1.667          -0.85         -76.83          4.246         -88.44          82.29          56.01
   0.01955              -30.14        -0.8247          71.39          59.37          1.668        -0.8483         -76.84          4.258         -88.44          82.28          56.02
   0.03909              -30.14        -0.8199          71.38          59.37          1.669        -0.8465         -76.85           4.27         -88.43          82.27          56.03
   0.05864              -30.14        -0.8148          71.37          59.37           1.67        -0.8446         -76.86          4.283         -88.43          82.26          56.04
   0.07819              -30.14        -0.8094          71.37          59.37          1.671        -0.8425         -76.88          4.297         -88.42          82.25          56.06
   0.09774              -30.14        -0.8037          71.36          59.37          1.672        -0.8404         -76.89          4.311         -88.42          82.23          56.07
    0.1173              -30.14        -0.7975          71.35          59.37          1.673        -0.8381         -76.91          4.327         -88.41          82.22          56.09
    0.1368              -30.14         -0.791          71.34          59.37          1.674        -0.8356         -76.92          4.344          -88.4           82.2           56.1
    0.1564              -30.15        -0.7839          71.33          59.37          1.675        -0.8329         -76.94          4.362          -88.4          82.19          56.12
    0.1759              -30.15        -0.7764          71.31          59.37          1.676        -0.8301         -76.96          4.381         -88.39          82.17          56.14
    0.1955              -30.15        -0.7683           71.3          59.37          1.677         -0.827         -76.98          4.402         -88.38          82.15          56.16
     0.215              -30.15        -0.7595          71.29          59.37          1.679        -0.8237          -77.0          4.424         -88.37          82.13          56.18
    0.2346              -30.15        -0.7501          71.27          59.37           1.68        -0.8202         -77.02          4.448         -88.36          82.11          56.21
    0.2541              -30.16          -0.74          71.26          59.36          1.682        -0.8163         -77.05          4.474         -88.35          82.09          56.23
    0.2737              -30.16         -0.729          71.24          59.36          1.684        -0.8122         -77.08          4.503         -88.34          82.06          56.26
    0.2932              -30.16         -0.717          71.22          59.36          1.686        -0.8077         -77.11          4.533         -88.33          82.04          56.29
    0.3128              -30.17        -0.7041           71.2          59.36          1.688        -0.8028         -77.14          4.566         -88.32          82.01          56.32
    0.3323              -30.17        -0.6899          71.18          59.36           1.69        -0.7975         -77.17          4.602         -88.31          81.98          56.36
    0.3519              -30.17        -0.6745          71.16          59.36          1.693        -0.7916         -77.21          4.642         -88.29          81.94           56.4
    0.3714              -30.18        -0.6576          71.13          59.36          1.695        -0.7853         -77.26          4.685         -88.27           81.9          56.44
    0.3909              -30.18        -0.6391           71.1          59.36          1.698        -0.7783          -77.3          4.733         -88.26          81.86          56.49
    0.4105              -30.19        -0.6187          71.07          59.36          1.702        -0.7706         -77.35          4.785         -88.24          81.82          56.54
      0.43              -30.19        -0.5961          71.03          59.36          1.705        -0.7621         -77.41          4.842         -88.21          81.77           56.6
    0.4496               -30.2        -0.5712           71.0          59.35           1.71        -0.7527         -77.47          4.906         -88.19          81.71          56.66
    0.4691              -30.21        -0.5434          70.95          59.35          1.714        -0.7422         -77.54          4.977         -88.16          81.65          56.73
    0.4887              -30.22        -0.5124           70.9          59.35          1.719        -0.7305         -77.62          5.057         -88.13          81.58          56.81
    0.5082              -30.22        -0.4777          70.85          59.35          1.725        -0.7174         -77.71          5.145          -88.1           81.5           56.9
    0.5278              -30.23        -0.4387          70.79          59.35          1.731        -0.7027          -77.8          5.245         -88.06          81.41           57.0
    0.5473              -30.25        -0.3946          70.72          59.34          1.738         -0.686         -77.91          5.358         -88.02          81.31          57.11
    0.5669              -30.26        -0.3445          70.64          59.34          1.747        -0.6671         -78.04          5.486         -87.97           81.2          57.24
    0.5864              -30.27        -0.2873          70.55          59.34          1.756        -0.6456         -78.18          5.632         -87.91          81.07          57.39
     0.606              -30.29        -0.2217          70.45          59.33          1.767        -0.6208         -78.35            5.8         -87.85          80.92          57.55
    0.6255              -30.31         -0.146          70.33          59.33          1.779        -0.5923         -78.54          5.994         -87.78          80.75          57.75
    0.6451              -30.33       -0.05798           70.2          59.32          1.794        -0.5591         -78.76          6.219         -87.69          80.55          57.97
    0.6646              -30.36          0.045          70.04          59.32           1.81        -0.5202         -79.02          6.483         -87.59          80.32          58.23
    0.6842              -30.39         0.1664          69.85          59.31           1.83        -0.4744         -79.32          6.793         -87.47          80.05          58.54
    0.7037              -30.43         0.3107          69.62           59.3          1.854          -0.42         -79.68          7.162         -87.34          79.72          58.91
    0.7233              -30.47         0.4836          69.35          59.29          1.882        -0.3548         -80.11          7.605         -87.17          79.34          59.35
